<svg width="28" height="30" viewBox="0 0 28 30" fill="none" xmlns="http://www.w3.org/2000/svg">
<path fill-rule="evenodd" clip-rule="evenodd" d="M26.619 5.71429C27.1713 5.71429 27.619 6.162 27.619 6.71429V7.57143C27.619 8.12371 27.1713 8.57143 26.619 8.57143H25.7619C25.2096 8.57143 24.7619 9.01914 24.7619 9.57143V27.619C24.7619 29.1429 24.0476 30 22.381 30H5.71429C4.04762 30 3.33333 29.1429 3.33333 27.619V9.57143C3.33333 9.01914 2.88562 8.57143 2.33333 8.57143H1C0.447715 8.57143 0 8.12371 0 7.57143V6.71429C0 6.162 0.447715 5.71429 1 5.71429H5.66667C6.21895 5.71429 6.66667 5.26657 6.66667 4.71429V2.38095C6.66667 0.857143 7.38095 0 9.04762 0H19.0476C20.7143 0 21.4286 0.857143 21.4286 2.38095V4.71429C21.4286 5.26657 21.8763 5.71429 22.4286 5.71429H26.619ZM9.52381 3.85714C9.52381 3.30486 9.97153 2.85714 10.5238 2.85714H17.5714C18.1237 2.85714 18.5714 3.30486 18.5714 3.85714V4.71428C18.5714 5.26657 18.1237 5.71429 17.5714 5.71429H10.5238C9.97152 5.71429 9.52381 5.26657 9.52381 4.71428V3.85714ZM7.19048 27.1429C6.63819 27.1429 6.19048 26.6951 6.19048 26.1429V9.57143C6.19048 9.01914 6.63819 8.57143 7.19048 8.57143H20.9048C21.457 8.57143 21.9048 9.01914 21.9048 9.57143V26.1429C21.9048 26.6951 21.457 27.1429 20.9048 27.1429H7.19048Z" fill="#FF0000"/>
<path d="M9.52381 12.9048C9.52381 12.3525 9.97152 11.9048 10.5238 11.9048H11.381C11.9332 11.9048 12.381 12.3525 12.381 12.9048V22.8095C12.381 23.3618 11.9332 23.8095 11.381 23.8095H10.5238C9.97153 23.8095 9.52381 23.3618 9.52381 22.8095V12.9048Z" fill="#FF0000"/>
<path d="M15.7143 12.9048C15.7143 12.3525 16.162 11.9048 16.7143 11.9048H17.5714C18.1237 11.9048 18.5714 12.3525 18.5714 12.9048V22.8095C18.5714 23.3618 18.1237 23.8095 17.5714 23.8095H16.7143C16.162 23.8095 15.7143 23.3618 15.7143 22.8095V12.9048Z" fill="#FF0000"/>
</svg>
